<svg width="24" height="24" viewBox="0 0 24 24" fill="none" xmlns="http://www.w3.org/2000/svg">
<rect x="0.25" y="0.25" width="23.5" height="23.5" rx="11.75" stroke="#999999" stroke-width="0.5"/>
<path d="M10.028 16.6687H13.972C13.8932 17.1347 13.6519 17.5577 13.291 17.8627C12.93 18.1678 12.4726 18.3352 12 18.3352C11.5274 18.3352 11.0701 18.1678 10.7091 17.8627C10.3481 17.5577 10.1068 17.1347 10.028 16.6687ZM12 5.33533C13.3261 5.33533 14.5979 5.86211 15.5356 6.79979C16.4732 7.73748 17 9.00924 17 10.3353V13.002L17.9454 15.1087C17.9883 15.205 18.0066 15.3106 17.9984 15.4158C17.9902 15.5209 17.9559 15.6224 17.8985 15.711C17.8412 15.7995 17.7626 15.8723 17.67 15.9228C17.5773 15.9733 17.4735 15.9998 17.368 16H6.6347C6.52905 16 6.42509 15.9735 6.33227 15.9231C6.23946 15.8726 6.16074 15.7997 6.10329 15.7111C6.04584 15.6224 6.01149 15.5208 6.00335 15.4155C5.99521 15.3101 6.01355 15.2044 6.0567 15.108L7.00003 13.0013V10.3267L7.00336 10.16C7.04897 8.86523 7.59536 7.63871 8.52743 6.73885C9.4595 5.839 10.7045 5.33539 12 5.33533Z" fill="white"/>
</svg>
