<svg width="24" height="24" viewBox="0 0 24 24" fill="none" xmlns="http://www.w3.org/2000/svg">
<rect x="0.25" y="0.25" width="23.5" height="23.5" rx="11.75" stroke="#999999" stroke-width="0.5"/>
<path d="M12 10.0033C12.7072 10.0033 13.3855 10.2842 13.8856 10.7843C14.3857 11.2844 14.6666 11.9627 14.6666 12.67C14.6666 13.3772 14.3857 14.0555 13.8856 14.5556C13.3855 15.0557 12.7072 15.3366 12 15.3366C11.2927 15.3366 10.6145 15.0557 10.1144 14.5556C9.61426 14.0555 9.33331 13.3772 9.33331 12.67C9.33331 11.9627 9.61426 11.2844 10.1144 10.7843C10.6145 10.2842 11.2927 10.0033 12 10.0033ZM12 7.66663C15.0753 7.66663 17.7306 9.76663 18.4673 12.7093C18.4996 12.8379 18.4794 12.9741 18.4113 13.0879C18.3431 13.2016 18.2326 13.2837 18.104 13.316C17.9753 13.3482 17.8392 13.3281 17.7254 13.2599C17.6116 13.1918 17.5296 13.0813 17.4973 12.9526C17.1891 11.7278 16.4808 10.641 15.4846 9.86465C14.4885 9.08828 13.2616 8.66681 11.9986 8.66712C10.7356 8.66742 9.50894 9.08949 8.51316 9.86635C7.51738 10.6432 6.80955 11.7303 6.50197 12.9553C6.46744 13.0812 6.38498 13.1887 6.27225 13.2546C6.15952 13.3206 6.02546 13.3398 5.89874 13.3082C5.77203 13.2766 5.66271 13.1966 5.59416 13.0855C5.52562 12.9743 5.5033 12.8407 5.53197 12.7133C5.89349 11.2716 6.72628 9.992 7.89811 9.07767C9.06995 8.16335 10.5136 7.66672 12 7.66663Z" fill="white"/>
</svg>
