<svg width="48" height="48" viewBox="0 0 48 48" fill="none" xmlns="http://www.w3.org/2000/svg">
<path d="M24 14C29.523 14 34 18.477 34 24C34 29.523 29.523 34 24 34C22.3822 34.0021 20.7883 33.6102 19.356 32.858L15.066 33.975C14.9227 34.0123 14.7721 34.0116 14.6291 33.9728C14.4861 33.934 14.3558 33.8585 14.251 33.7538C14.1462 33.6491 14.0706 33.5188 14.0317 33.3759C13.9927 33.233 13.9918 33.0824 14.029 32.939L15.145 28.65C14.3908 27.2162 13.9978 25.6201 14 24C14 18.477 18.477 14 24 14ZM24 27.5C23.7348 27.5 23.4804 27.6054 23.2929 27.7929C23.1054 27.9804 23 28.2348 23 28.5C23 28.7652 23.1054 29.0196 23.2929 29.2071C23.4804 29.3946 23.7348 29.5 24 29.5C24.2652 29.5 24.5196 29.3946 24.7071 29.2071C24.8947 29.0196 25 28.7652 25 28.5C25 28.2348 24.8947 27.9804 24.7071 27.7929C24.5196 27.6054 24.2652 27.5 24 27.5ZM24 18.75C23.2707 18.75 22.5712 19.0397 22.0555 19.5555C21.5397 20.0712 21.25 20.7707 21.25 21.5C21.2501 21.69 21.3223 21.8729 21.452 22.0118C21.5817 22.1506 21.7593 22.2351 21.9489 22.248C22.1385 22.261 22.3259 22.2015 22.4733 22.0816C22.6207 21.9617 22.7171 21.7903 22.743 21.602L22.757 21.372C22.7908 21.0541 22.9451 20.7612 23.1882 20.5535C23.4314 20.3459 23.7448 20.2393 24.0641 20.2557C24.3834 20.2721 24.6843 20.4102 24.9049 20.6417C25.1255 20.8731 25.249 21.1803 25.25 21.5C25.25 22.039 25.115 22.305 24.605 22.832L24.301 23.142C23.547 23.926 23.25 24.489 23.25 25.5C23.25 25.6989 23.329 25.8897 23.4697 26.0303C23.6103 26.171 23.8011 26.25 24 26.25C24.1989 26.25 24.3897 26.171 24.5303 26.0303C24.671 25.8897 24.75 25.6989 24.75 25.5C24.75 24.961 24.885 24.695 25.395 24.168L25.699 23.858C26.453 23.074 26.75 22.511 26.75 21.5C26.75 20.7707 26.4603 20.0712 25.9446 19.5555C25.4288 19.0397 24.7294 18.75 24 18.75Z" fill="#999999"/>
</svg>
