<svg width="48" height="48" viewBox="0 0 48 48" fill="none" xmlns="http://www.w3.org/2000/svg">
<path d="M34 20.608V28.75C34.0001 29.5801 33.6824 30.3788 33.1123 30.9822C32.5422 31.5856 31.7628 31.948 30.934 31.995L30.75 32H17.25C16.4199 32.0001 15.6212 31.6824 15.0178 31.1123C14.4144 30.5422 14.052 29.7628 14.005 28.934L14 28.75V20.608L23.652 25.664C23.7594 25.7202 23.8788 25.7496 24 25.7496C24.1212 25.7496 24.2406 25.7202 24.348 25.664L34 20.608ZM17.25 16H30.75C31.5556 15.9999 32.3325 16.299 32.93 16.8393C33.5276 17.3795 33.9032 18.1225 33.984 18.924L24 24.154L14.016 18.924C14.0935 18.1543 14.443 17.4375 15.0017 16.9025C15.5605 16.3674 16.2917 16.0492 17.064 16.005L17.25 16Z" fill="#999999"/>
</svg>
