<svg width="48" height="48" viewBox="0 0 48 48" fill="none" xmlns="http://www.w3.org/2000/svg">
<path d="M24.0122 14.25C24.7462 14.258 25.4772 14.343 26.1942 14.503C26.3468 14.537 26.4848 14.6179 26.5892 14.7343C26.6935 14.8506 26.7589 14.9967 26.7762 15.152L26.9462 16.679C26.9702 16.8943 27.0444 17.1009 27.1629 17.2823C27.2813 17.4637 27.4406 17.6147 27.6281 17.7233C27.8155 17.8319 28.0259 17.8949 28.2421 17.9073C28.4584 17.9198 28.6745 17.8813 28.8732 17.795L30.2742 17.18C30.4165 17.1174 30.5747 17.1004 30.7269 17.1316C30.8792 17.1628 31.018 17.2405 31.1242 17.354C32.1362 18.4351 32.8897 19.7316 33.3282 21.146C33.3742 21.2946 33.3728 21.4539 33.3243 21.6017C33.2757 21.7495 33.1824 21.8786 33.0572 21.971L31.8152 22.887C31.6406 23.0153 31.4985 23.1829 31.4007 23.3763C31.3028 23.5696 31.2518 23.7833 31.2518 24C31.2518 24.2167 31.3028 24.4304 31.4007 24.6237C31.4985 24.8171 31.6406 24.9847 31.8152 25.113L33.0582 26.028C33.1838 26.1204 33.2774 26.2495 33.3262 26.3976C33.3749 26.5456 33.3763 26.7051 33.3302 26.854C32.8916 28.2683 32.138 29.5648 31.1262 30.646C31.0203 30.7593 30.8819 30.8369 30.73 30.8682C30.5782 30.8996 30.4203 30.8831 30.2782 30.821L28.8712 30.204C28.6728 30.117 28.4567 30.0779 28.2404 30.09C28.0241 30.102 27.8136 30.1648 27.6261 30.2733C27.4386 30.3817 27.2792 30.5328 27.1609 30.7143C27.0426 30.8958 26.9687 31.1026 26.9452 31.318L26.7762 32.844C26.7592 32.9976 26.6951 33.1423 26.5927 33.2581C26.4903 33.3739 26.3546 33.4553 26.2042 33.491C24.7558 33.8356 23.2467 33.8356 21.7982 33.491C21.6478 33.4553 21.5121 33.3739 21.4097 33.2581C21.3074 33.1423 21.2433 32.9976 21.2262 32.844L21.0582 31.32C21.0337 31.1052 20.9592 30.8991 20.8405 30.7183C20.7219 30.5376 20.5625 30.3872 20.3752 30.2792C20.1879 30.1712 19.9778 30.1087 19.7619 30.0967C19.5461 30.0847 19.3304 30.1235 19.1322 30.21L17.7262 30.826C17.584 30.8883 17.4259 30.9049 17.2739 30.8736C17.1218 30.8422 16.9832 30.7645 16.8772 30.651C15.8649 29.5686 15.1113 28.2707 14.6732 26.855C14.6271 26.7061 14.6285 26.5466 14.6773 26.3986C14.726 26.2505 14.8197 26.1214 14.9452 26.029L16.1882 25.113C16.3631 24.9848 16.5053 24.8173 16.6033 24.6239C16.7013 24.4305 16.7524 24.2168 16.7524 24C16.7524 23.7832 16.7013 23.5695 16.6033 23.3761C16.5053 23.1827 16.3631 23.0152 16.1882 22.887L14.9452 21.973C14.8199 21.8805 14.7264 21.7513 14.6778 21.6033C14.6293 21.4552 14.628 21.2958 14.6742 21.147C15.1127 19.7326 15.8663 18.4361 16.8782 17.355C16.9844 17.2415 17.1232 17.1638 17.2755 17.1326C17.4278 17.1014 17.586 17.1184 17.7282 17.181L19.1282 17.796C19.3272 17.8823 19.5437 17.9207 19.7603 17.9081C19.9768 17.8955 20.1874 17.8323 20.3751 17.7236C20.5628 17.6149 20.7224 17.4636 20.841 17.282C20.9596 17.1004 21.034 16.8936 21.0582 16.678L21.2282 15.152C21.2454 14.9964 21.3108 14.85 21.4154 14.7334C21.5199 14.6168 21.6583 14.5359 21.8112 14.502C22.5282 14.343 23.2612 14.259 24.0122 14.25ZM24.0002 21C23.2046 21 22.4415 21.3161 21.8789 21.8787C21.3163 22.4413 21.0002 23.2044 21.0002 24C21.0002 24.7956 21.3163 25.5587 21.8789 26.1213C22.4415 26.6839 23.2046 27 24.0002 27C24.7959 27 25.5589 26.6839 26.1215 26.1213C26.6841 25.5587 27.0002 24.7956 27.0002 24C27.0002 23.2044 26.6841 22.4413 26.1215 21.8787C25.5589 21.3161 24.7959 21 24.0002 21Z" fill="#999999"/>
</svg>
