<svg width="48" height="48" viewBox="0 0 48 48" fill="none" xmlns="http://www.w3.org/2000/svg">
<path d="M24.0001 21.005C25.061 21.005 26.0784 21.4264 26.8285 22.1766C27.5787 22.9267 28.0001 23.9441 28.0001 25.005C28.0001 26.0659 27.5787 27.0833 26.8285 27.8334C26.0784 28.5836 25.061 29.005 24.0001 29.005C22.9392 29.005 21.9218 28.5836 21.1717 27.8334C20.4215 27.0833 20.0001 26.0659 20.0001 25.005C20.0001 23.9441 20.4215 22.9267 21.1717 22.1766C21.9218 21.4264 22.9392 21.005 24.0001 21.005ZM24.0001 17.5C28.6131 17.5 32.5961 20.65 33.7011 25.064C33.7495 25.2569 33.7193 25.4612 33.6171 25.6319C33.5148 25.8025 33.349 25.9256 33.1561 25.974C32.9631 26.0224 32.7589 25.9922 32.5882 25.89C32.4176 25.7878 32.2945 25.6219 32.2461 25.429C31.7838 23.5918 30.7213 21.9616 29.2271 20.797C27.7328 19.6325 25.8925 19.0003 23.998 19.0007C22.1036 19.0012 20.2635 19.6343 18.7699 20.7996C17.2762 21.9649 16.2144 23.5956 15.7531 25.433C15.7013 25.6219 15.5776 25.7831 15.4085 25.882C15.2394 25.9809 15.0383 26.0098 14.8482 25.9623C14.6582 25.9149 14.4942 25.795 14.3914 25.6283C14.2886 25.4615 14.2551 25.2611 14.2981 25.07C14.8404 22.9075 16.0895 20.9881 17.8473 19.6166C19.605 18.2451 21.7706 17.5001 24.0001 17.5Z" fill="#999999"/>
</svg>
