<svg width="48" height="48" viewBox="0 0 48 48" fill="none" xmlns="http://www.w3.org/2000/svg">
<path d="M20.9039 28.5H27.0959C26.4759 31.773 25.2339 34 23.9999 34C22.8029 34 21.5999 31.906 20.9619 28.796L20.9039 28.502V28.5ZM15.0659 28.501H19.3699C19.7349 30.583 20.3529 32.355 21.1629 33.594C18.6204 32.8394 16.4803 31.1085 15.2109 28.78L15.0659 28.501ZM28.6289 28.501H32.9339C32.3181 29.7204 31.4596 30.8012 30.4112 31.677C29.3628 32.5528 28.1464 33.2051 26.8369 33.594C27.5919 32.436 28.1809 30.816 28.5519 28.913L28.6289 28.501ZM28.9309 22.001H33.8009C34.1381 23.6626 34.0497 25.3826 33.5439 27.001H28.8399C28.9935 25.5584 29.037 24.1062 28.9699 22.657L28.9299 22L28.9309 22.001ZM14.1979 22H19.0679C18.9636 23.4719 18.9749 24.9498 19.1019 26.42L19.1589 27H14.4559C13.9493 25.3818 13.8606 23.6617 14.1979 22ZM20.5749 22H27.4249C27.5391 23.4733 27.5267 24.9537 27.3879 26.425L27.3259 27H20.6739C20.499 25.5026 20.4549 23.9929 20.5419 22.488L20.5749 22ZM26.9449 14.576L26.8359 14.406C28.3223 14.8472 29.6862 15.6272 30.8203 16.6846C31.9544 17.742 32.8278 19.048 33.3719 20.5H28.7799C28.4639 18.084 27.8239 16.008 26.9429 14.577L26.9449 14.576ZM21.0419 14.443L21.1639 14.406C20.2829 15.757 19.6279 17.736 19.2799 20.06L19.2189 20.5H14.6279C15.1644 19.0682 16.0213 17.7781 17.133 16.7282C18.2447 15.6784 19.5817 14.8968 21.0419 14.443ZM23.9999 14.002C25.3189 14.002 26.6459 16.544 27.2139 20.185L27.2609 20.5H20.7389C21.2799 16.691 22.6429 14.002 23.9999 14.002Z" fill="#999999"/>
</svg>
