<svg width="48" height="49" viewBox="0 0 48 49" fill="none" xmlns="http://www.w3.org/2000/svg">
<path d="M31.25 18.545V18.25C31.25 17.5207 30.9603 16.8212 30.4445 16.3055C29.9288 15.7897 29.2293 15.5 28.5 15.5H17.25C16.9412 15.5001 16.6356 15.5637 16.3525 15.6869C16.0693 15.8102 15.8145 15.9904 15.604 16.2164C15.3935 16.4424 15.2318 16.7093 15.1289 17.0005C15.026 17.2917 14.9842 17.6009 15.006 17.909C15.0022 17.9392 15.0002 17.9696 15 18V30.25C15 31.112 15.3424 31.9386 15.9519 32.5481C16.5614 33.1576 17.388 33.5 18.25 33.5H30.75C31.4793 33.5 32.1788 33.2103 32.6945 32.6945C33.2103 32.1788 33.5 31.4793 33.5 30.75V21.25C33.5002 20.6072 33.2752 19.9847 32.8642 19.4906C32.4532 18.9964 31.882 18.6619 31.25 18.545ZM17.25 17H28.5C29.19 17 29.75 17.56 29.75 18.25V18.5H17.25C17.0511 18.5 16.8603 18.421 16.7197 18.2803C16.579 18.1397 16.5 17.9489 16.5 17.75C16.5 17.5511 16.579 17.3603 16.7197 17.2197C16.8603 17.079 17.0511 17 17.25 17ZM28.25 25.5H30.25C30.4489 25.5 30.6397 25.579 30.7803 25.7197C30.921 25.8603 31 26.0511 31 26.25C31 26.4489 30.921 26.6397 30.7803 26.7803C30.6397 26.921 30.4489 27 30.25 27H28.25C28.0511 27 27.8603 26.921 27.7197 26.7803C27.579 26.6397 27.5 26.4489 27.5 26.25C27.5 26.0511 27.579 25.8603 27.7197 25.7197C27.8603 25.579 28.0511 25.5 28.25 25.5Z" fill="#999999"/>
</svg>
