<svg width="48" height="49" viewBox="0 0 48 49" fill="none" xmlns="http://www.w3.org/2000/svg">
<path d="M26.754 22.5C27.72 22.5 28.504 23.284 28.504 24.25V28.999C28.504 30.1927 28.0298 31.3376 27.1857 32.1817C26.3416 33.0258 25.1967 33.5 24.003 33.5C22.8093 33.5 21.6644 33.0258 20.8203 32.1817C19.9762 31.3376 19.502 30.1927 19.502 28.999V24.25C19.502 23.284 20.285 22.5 21.252 22.5H26.754ZM19.131 22.5C18.781 22.922 18.556 23.45 18.511 24.03L18.501 24.25V28.999C18.501 29.846 18.693 30.648 19.035 31.364C18.4423 31.5226 17.821 31.5427 17.2193 31.4228C16.6176 31.3029 16.0514 31.0463 15.5647 30.6727C15.078 30.2991 14.6838 29.8185 14.4125 29.2682C14.1411 28.7179 14 28.1126 14 27.499V24.25C14 23.8108 14.1652 23.3877 14.4627 23.0646C14.7602 22.7415 15.1683 22.5421 15.606 22.506L15.75 22.5H19.131ZM28.875 22.5H32.25C33.216 22.5 34 23.284 34 24.25V27.5C34.0001 28.1132 33.8593 28.7182 33.5884 29.2682C33.3175 29.8183 32.9237 30.2987 32.4376 30.6724C31.9514 31.046 31.3858 31.3029 30.7846 31.4232C30.1833 31.5435 29.5625 31.5239 28.97 31.366C29.27 30.738 29.454 30.046 29.495 29.314L29.504 28.999V24.25C29.504 23.585 29.269 22.975 28.875 22.5ZM24 15.5C24.7956 15.5 25.5587 15.8161 26.1213 16.3787C26.6839 16.9413 27 17.7044 27 18.5C27 19.2956 26.6839 20.0587 26.1213 20.6213C25.5587 21.1839 24.7956 21.5 24 21.5C23.2044 21.5 22.4413 21.1839 21.8787 20.6213C21.3161 20.0587 21 19.2956 21 18.5C21 17.7044 21.3161 16.9413 21.8787 16.3787C22.4413 15.8161 23.2044 15.5 24 15.5ZM30.5 16.5C31.163 16.5 31.7989 16.7634 32.2678 17.2322C32.7366 17.7011 33 18.337 33 19C33 19.663 32.7366 20.2989 32.2678 20.7678C31.7989 21.2366 31.163 21.5 30.5 21.5C29.837 21.5 29.2011 21.2366 28.7322 20.7678C28.2634 20.2989 28 19.663 28 19C28 18.337 28.2634 17.7011 28.7322 17.2322C29.2011 16.7634 29.837 16.5 30.5 16.5ZM17.5 16.5C18.163 16.5 18.7989 16.7634 19.2678 17.2322C19.7366 17.7011 20 18.337 20 19C20 19.663 19.7366 20.2989 19.2678 20.7678C18.7989 21.2366 18.163 21.5 17.5 21.5C16.837 21.5 16.2011 21.2366 15.7322 20.7678C15.2634 20.2989 15 19.663 15 19C15 18.337 15.2634 17.7011 15.7322 17.2322C16.2011 16.7634 16.837 16.5 17.5 16.5Z" fill="#999999"/>
</svg>
