<svg width="24" height="24" viewBox="0 0 24 24" fill="none" xmlns="http://www.w3.org/2000/svg">
<rect width="24" height="24" rx="2" fill="#1F1F1F"/>
<path d="M13.2932 7.3333L16.6672 10.7066L16.0259 11.348C15.3984 11.2958 14.7672 11.381 14.176 11.5976C13.5849 11.8143 13.048 12.1571 12.6028 12.6023C12.1577 13.0475 11.8148 13.5843 11.5982 14.1755C11.3816 14.7666 11.2964 15.3979 11.3485 16.0253L10.0419 17.332C9.85711 17.5167 9.6273 17.65 9.3752 17.7186L5.9652 18.6486C5.88026 18.6716 5.79075 18.6718 5.70572 18.6492C5.62069 18.6265 5.54314 18.5818 5.48092 18.5196C5.41869 18.4574 5.37399 18.3798 5.35133 18.2948C5.32867 18.2097 5.32886 18.1202 5.35186 18.0353L6.2812 14.6246C6.34982 14.3725 6.48311 14.1427 6.66786 13.958L13.2932 7.3333ZM18.0205 5.97997C18.4677 6.42739 18.7189 7.03407 18.7189 7.66664C18.7189 8.2992 18.4677 8.90588 18.0205 9.3533L17.3739 9.99997L13.9999 6.62664L14.6465 5.97997C14.868 5.75838 15.131 5.58259 15.4205 5.46266C15.71 5.34273 16.0202 5.28101 16.3335 5.28101C16.6469 5.28101 16.9571 5.34273 17.2466 5.46266C17.536 5.58259 17.799 5.75838 18.0205 5.97997ZM13.5199 13.316C13.5697 13.4884 13.5842 13.6691 13.5626 13.8472C13.5409 14.0254 13.4835 14.1973 13.3938 14.3528C13.3041 14.5082 13.184 14.6439 13.0405 14.7518C12.8971 14.8597 12.7334 14.9375 12.5592 14.9806L12.1699 15.0766C12.1075 15.4759 12.1088 15.8825 12.1739 16.2813L12.5339 16.368C12.7096 16.4103 12.8749 16.4879 13.0197 16.5961C13.1645 16.7043 13.2857 16.8408 13.3762 16.9973C13.4666 17.1538 13.5242 17.327 13.5456 17.5065C13.567 17.686 13.5516 17.8679 13.5005 18.0413L13.3759 18.4626C13.6692 18.72 14.0025 18.9286 14.3652 19.0766L14.6945 18.7313C14.8191 18.6003 14.969 18.496 15.1351 18.4247C15.3012 18.3534 15.4801 18.3167 15.6609 18.3167C15.8416 18.3167 16.0205 18.3534 16.1866 18.4247C16.3528 18.496 16.5026 18.6003 16.6272 18.7313L16.9592 19.0813C17.3202 18.9345 17.6543 18.7288 17.9479 18.4726L17.8159 18.0153C17.7661 17.8429 17.7517 17.6622 17.7735 17.4841C17.7952 17.306 17.8527 17.1341 17.9424 16.9787C18.0322 16.8234 18.1524 16.6877 18.2958 16.5799C18.4393 16.4721 18.603 16.3943 18.7772 16.3513L19.1659 16.2553C19.2283 15.8558 19.227 15.449 19.1619 15.05L18.8019 14.9633C18.6261 14.921 18.4609 14.8434 18.3161 14.7352C18.1713 14.627 18.05 14.4905 17.9596 14.334C17.8692 14.1775 17.8115 14.0042 17.7901 13.8248C17.7687 13.6453 17.7841 13.4633 17.8352 13.29L17.9599 12.87C17.6666 12.6113 17.3322 12.4034 16.9705 12.2546L16.6419 12.6006C16.5173 12.7318 16.3674 12.8362 16.2012 12.9075C16.035 12.9788 15.856 13.0156 15.6752 13.0156C15.4943 13.0156 15.3154 12.9788 15.1492 12.9075C14.983 12.8362 14.8331 12.7318 14.7085 12.6006L14.3765 12.2506C14.0139 12.3973 13.6805 12.604 13.3879 12.8586L13.5199 13.316ZM15.6672 16.6666C15.1339 16.6666 14.7005 16.2186 14.7005 15.6666C14.7005 15.114 15.1339 14.6666 15.6672 14.6666C16.2005 14.6666 16.6339 15.114 16.6339 15.6666C16.6339 16.2186 16.2005 16.6666 15.6672 16.6666Z" fill="white"/>
</svg>
