<svg width="24" height="24" viewBox="0 0 24 24" fill="none" xmlns="http://www.w3.org/2000/svg">
<rect width="24" height="24" rx="2" fill="#1F1F1F"/>
<path d="M15.3333 6.66671C15.1565 6.66671 14.987 6.59647 14.8619 6.47145C14.7369 6.34642 14.6667 6.17685 14.6667 6.00004C14.6667 5.82323 14.7369 5.65366 14.8619 5.52864C14.987 5.40361 15.1565 5.33337 15.3333 5.33337H18C18.1768 5.33337 18.3464 5.40361 18.4714 5.52864C18.5964 5.65366 18.6667 5.82323 18.6667 6.00004V8.66671C18.6667 8.84352 18.5964 9.01309 18.4714 9.13811C18.3464 9.26314 18.1768 9.33337 18 9.33337C17.8232 9.33337 17.6536 9.26314 17.5286 9.13811C17.4036 9.01309 17.3333 8.84352 17.3333 8.66671V7.60937L13.4713 11.4714C13.3463 11.5964 13.1768 11.6666 13 11.6666C12.8232 11.6666 12.6537 11.5964 12.5287 11.4714L10.6667 9.60937L7.138 13.138C7.01227 13.2595 6.84386 13.3267 6.66907 13.3252C6.49427 13.3236 6.32706 13.2535 6.20345 13.1299C6.07985 13.0063 6.00974 12.8391 6.00822 12.6643C6.0067 12.4895 6.07389 12.3211 6.19533 12.1954L10.1953 8.19537C10.3204 8.07039 10.4899 8.00018 10.6667 8.00018C10.8434 8.00018 11.013 8.07039 11.138 8.19537L13 10.0574L16.3907 6.66671H15.3333ZM7.33333 16V18C7.33333 18.1769 7.2631 18.3464 7.13807 18.4714C7.01305 18.5965 6.84348 18.6667 6.66667 18.6667C6.48986 18.6667 6.32029 18.5965 6.19526 18.4714C6.07024 18.3464 6 18.1769 6 18V16C6 15.8232 6.07024 15.6537 6.19526 15.5286C6.32029 15.4036 6.48986 15.3334 6.66667 15.3334C6.84348 15.3334 7.01305 15.4036 7.13807 15.5286C7.2631 15.6537 7.33333 15.8232 7.33333 16ZM10.6667 13.3334C10.6667 13.1566 10.5964 12.987 10.4714 12.862C10.3464 12.7369 10.1768 12.6667 10 12.6667C9.82319 12.6667 9.65362 12.7369 9.5286 12.862C9.40357 12.987 9.33333 13.1566 9.33333 13.3334V18C9.33333 18.1769 9.40357 18.3464 9.5286 18.4714C9.65362 18.5965 9.82319 18.6667 10 18.6667C10.1768 18.6667 10.3464 18.5965 10.4714 18.4714C10.5964 18.3464 10.6667 18.1769 10.6667 18V13.3334ZM13.3333 14C13.5101 14 13.6797 14.0703 13.8047 14.1953C13.9298 14.3203 14 14.4899 14 14.6667V18C14 18.1769 13.9298 18.3464 13.8047 18.4714C13.6797 18.5965 13.5101 18.6667 13.3333 18.6667C13.1565 18.6667 12.987 18.5965 12.8619 18.4714C12.7369 18.3464 12.6667 18.1769 12.6667 18V14.6667C12.6667 14.4899 12.7369 14.3203 12.8619 14.1953C12.987 14.0703 13.1565 14 13.3333 14ZM17.3333 11.3334C17.3333 11.1566 17.2631 10.987 17.1381 10.862C17.013 10.7369 16.8435 10.6667 16.6667 10.6667C16.4899 10.6667 16.3203 10.7369 16.1953 10.862C16.0702 10.987 16 11.1566 16 11.3334V18C16 18.1769 16.0702 18.3464 16.1953 18.4714C16.3203 18.5965 16.4899 18.6667 16.6667 18.6667C16.8435 18.6667 17.013 18.5965 17.1381 18.4714C17.2631 18.3464 17.3333 18.1769 17.3333 18V11.3334Z" fill="white"/>
</svg>
