<svg width="24" height="24" viewBox="0 0 24 24" fill="none" xmlns="http://www.w3.org/2000/svg">
<rect width="24" height="24" rx="2" fill="#1F1F1F"/>
<path d="M15.6668 10.6667C15.6668 11.8067 15.2854 12.858 14.6428 13.6987L17.8048 16.862C17.9243 16.982 17.9937 17.143 17.9989 17.3123C18.0041 17.4816 17.9446 17.6465 17.8326 17.7735C17.7206 17.9006 17.5644 17.9802 17.3958 17.9963C17.2272 18.0123 17.0587 17.9636 16.9248 17.86L16.8621 17.8047L13.6988 14.6427C12.8018 15.3267 11.6998 15.6874 10.572 15.666C9.44411 15.6446 8.35663 15.2424 7.48622 14.5249C6.61581 13.8073 6.01362 12.8165 5.77751 11.7134C5.54139 10.6104 5.68523 9.45985 6.18564 8.44886C6.68605 7.43787 7.51363 6.6258 8.53391 6.1446C9.55418 5.66341 10.7072 5.54136 11.8056 5.7983C12.904 6.05524 13.8833 6.67606 14.5842 7.55989C15.2852 8.44372 15.6667 9.53861 15.6668 10.6667ZM10.6668 7.66667C10.4899 7.66667 10.3204 7.73691 10.1953 7.86194C10.0703 7.98696 10.0001 8.15653 10.0001 8.33334V10H8.33342C8.15661 10 7.98704 10.0702 7.86202 10.1953C7.73699 10.3203 7.66675 10.4899 7.66675 10.6667C7.66675 10.8435 7.73699 11.0131 7.86202 11.1381C7.98704 11.2631 8.15661 11.3333 8.33342 11.3333H10.0001V13C10.0001 13.1768 10.0703 13.3464 10.1953 13.4714C10.3204 13.5964 10.4899 13.6667 10.6668 13.6667C10.8436 13.6667 11.0131 13.5964 11.1382 13.4714C11.2632 13.3464 11.3334 13.1768 11.3334 13V11.3333H13.0001C13.1769 11.3333 13.3465 11.2631 13.4715 11.1381C13.5965 11.0131 13.6668 10.8435 13.6668 10.6667C13.6668 10.4899 13.5965 10.3203 13.4715 10.1953C13.3465 10.0702 13.1769 10 13.0001 10H11.3334V8.33334C11.3334 8.15653 11.2632 7.98696 11.1382 7.86194C11.0131 7.73691 10.8436 7.66667 10.6668 7.66667Z" fill="white"/>
</svg>
