<svg width="24" height="24" viewBox="0 0 24 24" fill="none" xmlns="http://www.w3.org/2000/svg">
<rect width="24" height="24" rx="2" fill="#1F1F1F"/>
<path d="M13.2933 7.33333L16.6667 10.7067L10.0413 17.3333C9.85676 17.518 9.62719 17.6513 9.37533 17.72L5.96466 18.65C5.87965 18.6731 5.79006 18.6733 5.70496 18.6506C5.61985 18.6279 5.54224 18.5831 5.47999 18.5208C5.41775 18.4585 5.37306 18.3808 5.35047 18.2957C5.32788 18.2106 5.32817 18.121 5.35133 18.036L6.28133 14.6253C6.35006 14.3735 6.48334 14.1439 6.66799 13.9593L13.292 7.33333H13.2933ZM18.02 5.98C18.4673 6.42734 18.7186 7.03405 18.7186 7.66667C18.7186 8.29929 18.4673 8.906 18.02 9.35333L17.3733 10L14 6.62667L14.6467 5.98C15.094 5.53268 15.7007 5.28137 16.3333 5.28137C16.9659 5.28137 17.5727 5.53268 18.02 5.98Z" fill="white"/>
</svg>
