<svg width="24" height="24" viewBox="0 0 24 24" fill="none" xmlns="http://www.w3.org/2000/svg">
<rect width="24" height="24" rx="2" fill="#1F1F1F"/>
<path d="M15.6668 10.6667C15.6667 9.53861 15.2852 8.44372 14.5842 7.55989C13.8833 6.67606 12.904 6.05524 11.8056 5.7983C10.7072 5.54136 9.55418 5.66341 8.53391 6.1446C7.51363 6.6258 6.68605 7.43787 6.18564 8.44886C5.68523 9.45985 5.54139 10.6104 5.77751 11.7134C6.01362 12.8165 6.61581 13.8073 7.48622 14.5249C8.35663 15.2424 9.44411 15.6446 10.572 15.666C11.6998 15.6874 12.8018 15.3267 13.6988 14.6427L16.8621 17.8047L16.9248 17.86C17.0587 17.9636 17.2272 18.0123 17.3958 17.9963C17.5644 17.9802 17.7206 17.9006 17.8326 17.7735C17.9446 17.6465 18.0041 17.4816 17.9989 17.3123C17.9937 17.143 17.9243 16.982 17.8048 16.862L14.6428 13.6987C15.3085 12.8282 15.6684 11.7625 15.6668 10.6667ZM13.0001 10C13.1769 10 13.3465 10.0702 13.4715 10.1953C13.5965 10.3203 13.6668 10.4899 13.6668 10.6667C13.6668 10.8435 13.5965 11.0131 13.4715 11.1381C13.3465 11.2631 13.1769 11.3333 13.0001 11.3333H8.33342C8.15661 11.3333 7.98704 11.2631 7.86202 11.1381C7.73699 11.0131 7.66675 10.8435 7.66675 10.6667C7.66675 10.4899 7.73699 10.3203 7.86202 10.1953C7.98704 10.0702 8.15661 10 8.33342 10H13.0001Z" fill="white"/>
</svg>
