<svg width="24" height="24" viewBox="0 0 24 24" fill="none" xmlns="http://www.w3.org/2000/svg">
<rect width="24" height="24" rx="2" fill="#1F1F1F"/>
<path d="M14.6667 8C14.6667 7.59085 14.7922 7.19155 15.0262 6.85596C15.2603 6.52036 15.5916 6.26462 15.9755 6.12323C16.3595 5.98183 16.7775 5.96159 17.1733 6.06523C17.5691 6.16887 17.9236 6.39141 18.189 6.70282C18.4543 7.01424 18.6178 7.39955 18.6573 7.80678C18.6969 8.21401 18.6106 8.62356 18.41 8.9802C18.2095 9.33684 17.9044 9.62339 17.536 9.80122C17.1675 9.97905 16.7533 10.0396 16.3494 9.97466L14.9907 12.2133C15.2772 12.6353 15.3917 13.1509 15.3106 13.6545C15.2296 14.158 14.9592 14.6117 14.5548 14.9225C14.1504 15.2333 13.6425 15.3779 13.135 15.3266C12.6275 15.2753 12.1588 15.0321 11.8247 14.6467L9.3307 15.8933C9.35641 16.3789 9.20433 16.8572 8.90291 17.2388C8.6015 17.6204 8.17139 17.8791 7.69305 17.9665C7.21471 18.0539 6.72091 17.9641 6.30401 17.7138C5.88712 17.4635 5.57569 17.0699 5.42799 16.6066C5.28029 16.1433 5.30643 15.642 5.50153 15.1966C5.69662 14.7512 6.04731 14.3922 6.48798 14.1866C6.92865 13.981 7.42912 13.943 7.89577 14.0797C8.36242 14.2164 8.76328 14.5185 9.02337 14.9293L11.3774 13.7527C11.2983 13.3842 11.3248 13.001 11.454 12.647C11.5833 12.293 11.8098 11.9827 12.1077 11.7519C12.4055 11.5211 12.7625 11.3791 13.1375 11.3423C13.5126 11.3055 13.8903 11.3755 14.2274 11.544L15.426 9.56866C15.1891 9.3816 14.9977 9.14325 14.8662 8.87155C14.7347 8.59985 14.6665 8.30186 14.6667 8Z" fill="white"/>
</svg>
