<svg width="24" height="24" viewBox="0 0 24 24" fill="none" xmlns="http://www.w3.org/2000/svg">
<rect width="24" height="24" rx="2" fill="#1F1F1F"/>
<path d="M13.2833 5.6687C13.5446 5.66868 13.8014 5.73695 14.0283 5.86675C14.2552 5.99655 14.4442 6.18337 14.5766 6.4087L15.1193 7.33337H16.4999C16.7844 7.33337 17.0662 7.38941 17.3291 7.4983C17.5919 7.60718 17.8308 7.76678 18.032 7.96797C18.2332 8.16916 18.3928 8.40802 18.5017 8.67089C18.6105 8.93376 18.6666 9.2155 18.6666 9.50003V15.8334C18.6666 16.1179 18.6105 16.3996 18.5017 16.6625C18.3928 16.9254 18.2332 17.1642 18.032 17.3654C17.8308 17.5666 17.5919 17.7262 17.3291 17.8351C17.0662 17.944 16.7844 18 16.4999 18H7.49992C6.92528 18 6.37418 17.7718 5.96785 17.3654C5.56153 16.9591 5.33325 16.408 5.33325 15.8334V9.50003C5.33325 8.9254 5.56153 8.3743 5.96785 7.96797C6.37418 7.56164 6.92528 7.33337 7.49992 7.33337H8.88658L9.46992 6.38403C9.60404 6.16551 9.79194 5.98502 10.0157 5.85979C10.2394 5.73456 10.4915 5.66877 10.7479 5.6687H13.2833ZM11.9999 9.33337C11.2043 9.33337 10.4412 9.64944 9.8786 10.212C9.31599 10.7747 8.99992 11.5377 8.99992 12.3334C8.99992 13.129 9.31599 13.8921 9.8786 14.4547C10.4412 15.0173 11.2043 15.3334 11.9999 15.3334C12.7956 15.3334 13.5586 15.0173 14.1212 14.4547C14.6838 13.8921 14.9999 13.129 14.9999 12.3334C14.9999 11.5377 14.6838 10.7747 14.1212 10.212C13.5586 9.64944 12.7956 9.33337 11.9999 9.33337ZM11.9999 10.3334C12.2626 10.3334 12.5226 10.3851 12.7653 10.4856C13.0079 10.5861 13.2284 10.7334 13.4141 10.9192C13.5998 11.1049 13.7472 11.3253 13.8477 11.568C13.9482 11.8107 13.9999 12.0707 13.9999 12.3334C13.9999 12.596 13.9482 12.8561 13.8477 13.0987C13.7472 13.3414 13.5998 13.5619 13.4141 13.7476C13.2284 13.9333 13.0079 14.0806 12.7653 14.1811C12.5226 14.2816 12.2626 14.3334 11.9999 14.3334C11.4695 14.3334 10.9608 14.1227 10.5857 13.7476C10.2106 13.3725 9.99992 12.8638 9.99992 12.3334C9.99992 11.8029 10.2106 11.2942 10.5857 10.9192C10.9608 10.5441 11.4695 10.3334 11.9999 10.3334Z" fill="white"/>
</svg>
