<svg width="24" height="24" viewBox="0 0 24 24" fill="none" xmlns="http://www.w3.org/2000/svg">
<rect width="24" height="24" rx="2" fill="#1F1F1F"/>
<path d="M7.16675 7.33329C7.16675 7.15648 7.23699 6.98691 7.36201 6.86189C7.48703 6.73686 7.6566 6.66663 7.83341 6.66663H16.1667C16.3436 6.66663 16.5131 6.73686 16.6382 6.86189C16.7632 6.98691 16.8334 7.15648 16.8334 7.33329V8.66663C16.8334 8.84344 16.7632 9.01301 16.6382 9.13803C16.5131 9.26305 16.3436 9.33329 16.1667 9.33329C15.9899 9.33329 15.8204 9.26305 15.6953 9.13803C15.5703 9.01301 15.5001 8.84344 15.5001 8.66663V7.99996H12.6667V16H13.3334C13.5102 16 13.6798 16.0702 13.8048 16.1952C13.9298 16.3202 14.0001 16.4898 14.0001 16.6666C14.0001 16.8434 13.9298 17.013 13.8048 17.138C13.6798 17.2631 13.5102 17.3333 13.3334 17.3333H10.6667C10.4899 17.3333 10.3204 17.2631 10.1953 17.138C10.0703 17.013 10.0001 16.8434 10.0001 16.6666C10.0001 16.4898 10.0703 16.3202 10.1953 16.1952C10.3204 16.0702 10.4899 16 10.6667 16H11.3334V7.99996H8.50008V8.66663C8.50008 8.84344 8.42984 9.01301 8.30482 9.13803C8.17979 9.26305 8.01023 9.33329 7.83341 9.33329C7.6566 9.33329 7.48703 9.26305 7.36201 9.13803C7.23699 9.01301 7.16675 8.84344 7.16675 8.66663V7.33329Z" fill="white"/>
</svg>
